/* XPM */
static char *result[] = {
/* columns rows colors chars-per-pixel */
"80 80 44 1 ",
"  c #060606",
". c #0C0C0C",
"X c #111111",
"o c #191919",
"O c #261926",
"+ c #271A27",
"@ c #291D29",
"# c #2B2525",
"$ c #2A202A",
"% c #2D212D",
"& c #352435",
"* c #352932",
"= c #3C2C3B",
"- c #3D373D",
"; c gray22",
": c #432D41",
"> c gray25",
", c #4B4B4B",
"< c gray32",
"1 c #555555",
"2 c gray35",
"3 c gray36",
"4 c gray37",
"5 c #644464",
"6 c #6A496A",
"7 c #6B496A",
"8 c #6F4D6F",
"9 c #704D70",
"0 c #735673",
"q c #755175",
"w c #785A78",
"e c gray38",
"r c gray39",
"t c #686767",
"y c #706E6E",
"u c #B5757E",
"i c #966996",
"p c #BD7D86",
"a c #8C898C",
"s c gray55",
"d c #959195",
"f c #989898",
"g c #C6868F",
"h c #C68690",
/* pixels */
"iiiiiiiiiiiiiiiiiiiiiiiiiiiiiiiiiiiiiiiiiiiiiiiiiiiiiiiiiiiiiiiiiiiiiiiiiiiiiiii",
"iiiiiiiiiiiiiiiiiiiiiiiiiiiiiiiiiiiiiiiiiiiiiiiiiiiiiiiiiiiiiiiiiiiiiiiiiiiiiiii",
"iiiiiiiiiiiiiiiiiiiiiiiiiiiiiiiiiiiiiiiiiiiiiiiiiiiiiiiiiiiiiiiiiiiiiiiiiiiiiiii",
"iiiqqqiqqqqqqqqqqqqqqqqqqqqqqqqqqqqqqqqqqqqqqqqqqqqqqqqqqqqqqqqqqqqqqqqqiqqqqiii",
"iiiqqiqqqqqqqqqqqqqqqqqqqqqqqqqqqqqqqqqqqqqqqqqqqqqqqqqqqqqqqqqqqqqqqqqqqiqqqiii",
"iiiqiqqqqqqqqqqqqqqqqqqqqqqqqqqqqqqqqqqqqqqqqqqqqqqqqqqqqqqqqqqqqqqqqqqqqqiqqiii",
"iiiiqqqqqqqqqqqqqqqqqqqqqqqqqqqqqqqqqqqqqqqqqqqqqqqqqqqqqqqqqqqqqqqqqqqqqqqiqiii",
"iiiqqqqqqqqqqqqqqqqqqqqqqqqqqqqqqqqqqqqqqqqqqqqqqqqqqqqqqqqqqqqqqqqqqqqqqqqqiiii",
"iiiqqqqqqqqqqqqqqqqqqqqqqqqqqqqqqqqqqqqqqqqqqqqqqqqqqqqqqqqqqqqqqqqqqqqqqqqqqiii",
"iiiqqqqqqqqqqqqqqqqqqqqqqqqqqqqqqqqqqqqqqqqqqqqqqqqqqqqqqqqqqqqqqqqqqqqqqqqqqiii",
"iiiqqqqqqqqqqqqqqqqqqqqqqqqqqqqqqqqqqqqqqqqqqqqqqqqqqqqqqqqqqqqqqqqqqqqqqqqqqiii",
"iiiqqqqqqqqqqqqqqqqqqqqqqqqqqqqqqqqqqqqqqqqqqqqqqqqqqqqqqqqqqqqqqqqqqqqqqqqqqiii",
"iiiqqqqqqqqqqqqqqqqqqqqqqqqqqqqqqqqqqqqqqqqqqqqqqqqqqqqqqqqqqqqqqqqqqqqqqqqqqiii",
"iiiqqqqqqqqqqqqqqqqqqqqqqqqqqqqqqqqqqqqqqqqqqqqqqqqqqqqqqqqqqqqqqqqqqqqqqqqqqiii",
"iiiqqqqqqqqqqqqqqqqqqqqqqqqqqqqqqqqqqqqqqqqqqqqqqqqqqqqqqqqqqqqqqqqqqqqqqqqqqiii",
"iiiqqqqqqqqqqqqqqqqqqqqqqqqqqqqqqqqqqqqqqqqqqqqqqqqqqqqqqqqqqqqqqqqqqqqqqqqqqiii",
"iiiqqqqqqqqqqqqqqqqqqqqqqqqqqqqqqqqqqqqqqqqqqqqqqqqqqqqqqqqqqqqqqqqqqqqqqqqqqiii",
"iiiqqqqqqqqqqqqqqqqqqqqqqqqqqqqqqqqqqqqqqqqqqqqqqqqqqqqqqqqqqqqqqqqqqqqqqqqqqiii",
"iiiqqqqqqqqqqqqqqqqqqqqqqqqqqqqqqqqqqqqqqqqqqqqqqqqqqqqqqqqqqqqqqqqqqqqqqqqqqiii",
"iiiqqqqqqqqqqqqqqqqqqqqqqqqqqqqqqqqqqqqqqqqqqqqqqqqqqqqqqqqqqqqqqqqqqqqqqqqqqiii",
"iiiqqqqqqqqqqqqqqqqqqqqqqqqqqqqqqqqqqqqqqqqqqqqqqqqqqqqqqqqqqqqqqqqqqqqqqqqqqiii",
"iiiqqqqqqqqqqqqqqqqqqqqqqqqqqqqqqqqqqqqqqqqqqqqqqqqqqqqqqqqqqqqqqqqqqqqqqqqqqiii",
"iiiqqqqqqqqqqqqqqqqqqqqqqqqqqqqqqqqqqqqqqqqqqqqqqqqqqqqqqqqqqqqqqqqqqqqqqqqqqiii",
"iiiqqqqqqqqqqqqqqqqqqqqqqqqqqqqqqqqqqqqqqqqqqqqqqqqqqqqqqqqqqqqqqqqqqqqqqqqqqiii",
"iiiqqqqqqqqqqqqqqqqqqqqqqqqqqqqqqqqqqqqqqqqqq9qqqqqq9qqqqqqqqqqqqqqqqqqqqqqqqiii",
"iiiqqqqqqqqqqqqqqqqqqqqqqqqqqqqqqqqqqqqqqqqq7:698896:7qqqqqqqqqqqqqqqqqqqqqqqiii",
"iiiqqqqqqqqqqqqqqqqqqqqqqqqqqqqqqqqqqqqqqqq9=u*@%%%*u=9qqqqqqqqqqqqqqqqqqqqqqiii",
"iiiqqqqqqqqqqqqqqqqqqqqqqqqqqqqqqqqqqqqqqqq8%hytsfsyg%8qqqqqqqqqqqqqqqqqqqqqqiii",
"iiiqqqqqqqqqqqqqqq9889qqqqqqqqqqqqqqqqqqqqq6%tr2ttert%6qqqqqqqqqqqqqqqqqqqqqqiii",
"iiiqqqqqqqqqqqqqq9&$@&9qqqqqqqqqqqqqqqqqqq9=re1o11o1e2=9qqqqqqqqqqqqqqqqqqqqqiii",
"iiiqqqqqqqqqqqqqq8$se@8qqqqqqqqqqqqqqqqqqqwaft1o11o1tfawqqqqqqqqqqqqqqqqqqqqqiii",
"iiiqqqqqqqqqqqqqq8@yt@9qqqqqqqqqqqqqqqqqqq0-te31<<13et-9qqqqqqqqqqqqqqqqqqqqqiii",
"iiiqqqqqqqqqqqqqq8@tt@6qqqqqqqqqqqqqqqqqqwdffr3<##<3rsdwqqqqqqqqqqqqqqqqqqqqqiii",
"iiiqqqqqqqqqqqqqq8@tto&69qqqq9888888888896*2te1#pp#1<=0qqqqqqqqqqqqqqqqqqqqqqiii",
"iiiqqqqqqqqqqqqqq8@rr2oO&6996&%%%%@@@@@@@%<#,331tt21$6qqqqqqqqqqqqqqqqqqqqqqqiii",
"iiiqqqqqqqqqqqqqq8@2eer2XO@@Oosffstrrrrrrre,#144431,&9qqqqqqqqqqqqqqqqqqqqqqqiii",
"iiiqqqqqqqqqqqqqq9&$3ere1<<<<1tttteeeeeeee43134441oO6qqqqqqqqqqqqqqqqqqqqqqqqiii",
"iiiqqqqqqqqqqqqqqq96$3yreeee4443334444444444444443,@9qqqqqqqqqqqqqqqqqqqqqqqqiii",
"iiiqqqqqqqqqqqqqqqq9&$4rrrrre4444444444444444444441@8qqqqqqqqqqqqqqqqqqqqqqqqiii",
"iiiqqqqqqqqqqqqqqqqq96&@@@@%344444444444444444444rr@8qqqqqqqqqqqqqqqqqqqqqqqqiii",
"iiiqqqqqqqqqqqqqqqqqqq988896%1444444444333333333ey4&9qqqqqqqqqqqqqqqqqqqqqqqqiii",
"iiiqqqqqqqqqqqqqqqqqqqqqqqq9@<444433332,>>>>>>>,yt%6qqqqqqqqqqqqqqqqqqqqqqqqqiii",
"iiiqqqqqqqqqqqqqqqqqqqqqqqq9@<4442>>>>>;@++O.Xo>yt@9qqqqqqqqqqqqqqqqqqqqqqqqqiii",
"iiiqqqqqqqqqqqqqqqqqqqqqqqq6$1443>..   &6996O,,o,e@8qqqqqqqqqqqqqqqqqqqqqqqqqiii",
"iiiqqqqqqqqqqqqqqqqqqqqqqq9&,344,X.; O&7qqq9@<1X><@9qqqqqqqqqqqqqqqqqqqqqqqqqiii",
"iiiqqqqqqqqqqqqqqqqqqqqqqq8@143<X ;>@59qqqq8@><X><$6qqqqqqqqqqqqqqqqqqqqqqqqqiii",
"iiiqqqqqqqqqqqqqqqqqqqqqqq8@<3,;  ;>;&7qqqq8@>>X;2,&9qqqqqqqqqqqqqqqqqqqqqqqqiii",
"iiiqqqqqqqqqqqqqqqqqqqqqqq8+;>;.O++@++:9qqq8+;; .;;O8qqqqqqqqqqqqqqqqqqqqqqqqiii",
"iiiqqqqqqqqqqqqqqqqqqqqqqq9&+@+&6988889qqqq9&++++++&9qqqqqqqqqqqqqqqqqqqqqqqqiii",
"iiiqqqqqqqqqqqqqqqqqqqqqqqq98889qqqqqqqqqqqq98888889qqqqqqqqqqqqqqqqqqqqqqqqqiii",
"iiiqqqqqqqqqqqqqqqqqqqqqqqqqqqqqqqqqqqqqqqqqqqqqqqqqqqqqqqqqqqqqqqqqqqqqqqqqqiii",
"iiiqqqqqqqqqqqqqqqqqqqqqqqqqqqqqqqqqqqqqqqqqqqqqqqqqqqqqqqqqqqqqqqqqqqqqqqqqqiii",
"iiiqqqqqqqqqqqqqqqqqqqqqqqqqqqqqqqqqqqqqqqqqqqqqqqqqqqqqqqqqqqqqqqqqqqqqqqqqqiii",
"iiiqqqqqqqqqqqqqqqqqqqqqqqqqqqqqqqqqqqqqqqqqqqqqqqqqqqqqqqqqqqqqqqqqqqqqqqqqqiii",
"iiiqqqqqqqqqqqqqqqqqqqqqqqqqqqqqqqqqqqqqqqqqqqqqqqqqqqqqqqqqqqqqqqqqqqqqqqqqqiii",
"iiiqqqqqqqqqqqqqqqqqqqqqqqqqqqqqqqqqqqqqqqqqqqqqqqqqqqqqqqqqqqqqqqqqqqqqqqqqqiii",
"iiiqqqqqqqqqqqqqqqqqqqqqqqqqqqqqqqqqqqqqqqqqqqqqqqqqqqqqqqqqqqqqqqqqqqqqqqqqqiii",
"iiiqqqqqqqqqqqqqqqqqqqqqqqqqqqqqqqqqqqqqqqqqqqqqqqqqqqqqqqqqqqqqqqqqqqqqqqqqqiii",
"iiiqqqqqqqqqqqqqqqqqqqqqqqqqqqqqqqqqqqqqqqqqqqqqqqqqqqqqqqqqqqqqqqqqqqqqqqqqqiii",
"iiiqqqqqqqqqqqqqqqqqqqqqqqqqqqqqqqqqqqqqqqqqqqqqqqqqqqqqqqqqqqqqqqqqqqqqqqqqqiii",
"iiiqqqqqqqqqqqqqqqqqqqqqqqqqqqqqqqqqqqqqqqqqqqqqqqqqqqqqqqqqqqqqqqqqqqqqqqqqqiii",
"iiiqqqqqqqqqqqqqqqqqqqqqqqqqqqqqqqqqqqqqqqqqqqqqqqqqqqqqqqqqqqqqqqqqqqqqqqqqqiii",
"iiiqqqqqqqqqqqqqqqqqqqqqqqqqqqqqqqqqqqqqqqqqqqqqqqqqqqqqqqqqqqqqqqqqqqqqqqqqqiii",
"iiiqqqqqqqqqqqqqqqqqqqqqqqqqqqqqqqqqqqqqqqqqqqqqqqqqqqqqqqqqqqqqqqqqqqqqqqqqqiii",
"iiiqqqqqqqqqqqqqqqqqqqqqqqqqqqqqqqqqqqqqqqqqqqqqqqqqqqqqqqqqqqqqqqqqqqqqqqqqqiii",
"iiiqqqqqqqqqqqqqqqqqqqqqqqqqqqqqqqqqqqqqqqqqqqqqqqqqqqqqqqqqqqqqqqqqqqqqqqqqqiii",
"iiiqqqqqqqqqqqqqqqqqqqqqqqqqqqqqqqqqqqqqqqqqqqqqqqqqqqqqqqqqqqqqqqqqqqqqqqqqqiii",
"iiiqqqqqqqqqqqqqqqqqqqqqqqqqqqqqqqqqqqqqqqqqqqqqqqqqqqqqqqqqqqqqqqqqqqqqqqqqqiii",
"iiiqqqqqqqqqqqqqqqqqqqqqqqqqqqqqqqqqqqqqqqqqqqqqqqqqqqqqqqqqqqqqqqqqqqqqqqqqqiii",
"iiiqqqqqqqqqqqqqqqqqqqqqqqqqqqqqqqqqqqqqqqqqqqqqqqqqqqqqqqqqqqqqqqqqqqqqqqqqqiii",
"iiiqqqqqqqqqqqqqqqqqqqqqqqqqqqqqqqqqqqqqqqqqqqqqqqqqqqqqqqqqqqqqqqqqqqqqqqqqqiii",
"iiiqqqqqqqqqqqqqqqqqqqqqqqqqqqqqqqqqqqqqqqqqqqqqqqqqqqqqqqqqqqqqqqqqqqqqqqqqiiii",
"iiiiqqqqqqqqqqqqqqqqqqqqqqqqqqqqqqqqqqqqqqqqqqqqqqqqqqqqqqqqqqqqqqqqqqqqqqqiqiii",
"iiiqiqqqqqqqqqqqqqqqqqqqqqqqqqqqqqqqqqqqqqqqqqqqqqqqqqqqqqqqqqqqqqqqqqqqqqiqqiii",
"iiiqqiqqqqqqqqqqqqqqqqqqqqqqqqqqqqqqqqqqqqqqqqqqqqqqqqqqqqqqqqqqqqqqqqqqqiqqqiii",
"iiiqqqiqqqqqqqqqqqqqqqqqqqqqqqqqqqqqqqqqqqqqqqqqqqqqqqqqqqqqqqqqqqqqqqqqiqqqqiii",
"iiiqqqqiiqqqqqqqqqqqqqqqqqqqqqqqqqqqqqqqqqqqqqqqqqqqqqqqqqqqqqqqqqqqqqiiqqqqqiii",
"iiiiiiiiiiiiiiiiiiiiiiiiiiiiiiiiiiiiiiiiiiiiiiiiiiiiiiiiiiiiiiiiiiiiiiiiiiiiiiii",
"iiiiiiiiiiiiiiiiiiiiiiiiiiiiiiiiiiiiiiiiiiiiiiiiiiiiiiiiiiiiiiiiiiiiiiiiiiiiiiii",
"iiiiiiiiiiiiiiiiiiiiiiiiiiiiiiiiiiiiiiiiiiiiiiiiiiiiiiiiiiiiiiiiiiiiiiiiiiiiiiii"
};
