/* XPM */
static char *result[] = {
/* columns rows colors chars-per-pixel */
"80 80 20 1 ",
"  c black",
". c #160109",
"X c #20020D",
"o c #2E0413",
"O c #40403C",
"+ c #4C4C46",
"@ c #5C5C57",
"# c #755175",
"$ c #686866",
"% c #6E6E65",
"& c #85857D",
"* c #966996",
"= c #8A8680",
"- c #92928B",
"; c #979791",
": c #969592",
"> c #9E9E91",
", c #BFBFB4",
"< c #D1D1C7",
"1 c #D9D9D0",
/* pixels */
"********************************************************************************",
"********************************************************************************",
"**############################################################################**",
"**############################################################################**",
"**############################################################################**",
"**############################################################################**",
"**############################################################################**",
"**############################################################################**",
"**############################################################################**",
"**############################################################################**",
"**############################################################################**",
"**############################################################################**",
"**############################################################################**",
"**############################################################################**",
"**############################################################################**",
"**############################################################################**",
"**############################################################################**",
"**############################################################################**",
"**############################################################################**",
"**############################################################################**",
"**#########################                  #################################**",
"**#########################                    ###############################**",
"**########################   :::,,,,,,,,,,,      #############################**",
"**#####################      :::,,,,,,,,,,,,,     ############################**",
"**#################        ::::,,,,,,,,,,,,,,,,                   ############**",
"**##############         ::::,,,,,,,,,,,,,,,,,,,                     #########**",
"**############       ,,,,&,,,<<,<<<<<<<<,,,,,,,,,,,,,,,,,,,,,,,,      ########**",
"**##########      ,,,,,,,&,,<<11111<<<<<<<<<<,,,,,,,,,,,,,,,,,,,,&,     ######**",
"**########     ,,,,,,<<,,;1111111111111111111,,@,,,,,,,,,,,,,,,@@&,,,    #####**",
"**#######     ,,,,,<<<,,&&,<,111111111;1111111,@,,,,,,,,,,,,,,@&&,,,,,    ####**",
"**#####     =:::,,<<<,11&&@&&&@@@@&@@@@@&&,,<11@,,,,,,,,,,,,&@&&,,,,,,,,   ###**",
"**####    ==::::,<,111&11@&&&&&,,,,,,,,&&&&&,&@-11111111111,&@&,,,,,,,,,   ###**",
"**###    ==:::<<<1111&111,%>>>>%%+>>>>>,&&&&@@@-<<111111111&&@111,11,,,,,   ##**",
"**##    ==:::<<<111&11&,>>>>>>>%>%%%>>>>>>>,&%%&&,<<1111<<-&@&,,,11111,,,   ##**",
"**##   ==:::<,<11111&@%%%>>%>>>>>>>>%%>>>>>>>>>,&&&&&<<@@@&@@@@@@,,1111,,,  ##**",
"**#   ==::::<<1111O@%%>%%%%>>>>>>>>>>>>>>>>>>>>>>>,,,,,>,,>>>>,&%@@,,,,,,=  ##**",
"**   ==::::<<11,,O%%%%%%%%%%>>>>>>>>>>>+%%%%%%%>>>>>>>>>+%>>>>%%>>@&&&&,:=  ##**",
"**   =::::<<<,,,&O%%%@@@&@@@@@@@@@O+++%>>>>>>>%>>>>>>%%%%%>>%%%%&OO&,,,::=  ##**",
"**  =:::::<<<,,,,@@@&&,,,,,,,,,,,,&&&&@%%%%%%>>>>>>>>>>>%>>%%%OOO&,,,,,:=    #**",
"**  =::::::<<<<,,,,&&&,,,,,,,,,,,,,,,,&&&@@%%%%%%%>>>>%>>>%%@&&&,,<,,,,:=    #**",
"**  =:::::::<<<<<<<,,,&&,<<<<111<,,,,,,,,,,&@@@%%%%%%%%%%%%@&&,<<<<,::::=   ##**",
"**  =::::::<<<<<<<<<<<,,,,<11111111111,,,,,,,,&&&@%%%%%%@@@,,,<<<<,,:::=    ##**",
"**  ==:::::::<<<<<<<<<<<<<<111111111111111111<<,,&&&&&&&:<<<<<<<<:::::==    ##**",
"**   ==:::::::::<<<<<<<<<<<<11111111111111111111<<<<<<<<<<<<<<<:::::::=     ##**",
"**   ==:::::::::::<<<<<<<<<<<<<<<<<<<<<<<<<<<<<<<<<<<<<<<<<<<<:::::::==      #**",
"**    ==:::::::::::::::<<<<<<<<<<<<<<<<<<<<<<<<:<<::::::::::::::::::==       #**",
"**     ==:::::::::::::::::::<<<<<<<<<<<<<<<<<<::::::::::::::::::::===        #**",
"**      ====::::::::::::::::::::::::::::::::<<:::::::::::$$$::::===          #**",
"**  XX    ===::::::::::::::::::::::::::::::::::$$$$$$$$$$:::::===     o      #**",
"**   Xo     ======::::::::::::::::::::::::::$$$$:::::::::======      X       #**",
"**    Xoo       ========================:::::=============        oX        ##**",
"**     XXoo                           =========                ooXX         ##**",
"**      oXooooo                                            oooooX          ###**",
"**        XXoooooooooooooooooooooooo            ooooooooooooooXX          ####**",
"**          XoooooooooooooooooooooooooooooooooooooooooooooooXX           #####**",
"**           XXXXoooooooooooooooooooooooooooooooooooooooooXXX           ######**",
"**##           XoX.oooooooooooooooooooooooooooooooooXXXXX             ########**",
"**#####                 .XXXXXXXXXXXXXX..........                    #########**",
"**########                                                          ##########**",
"**##########                                                   ###############**",
"**#############                                            ###################**",
"**########################################    ################################**",
"**############################################################################**",
"**############################################################################**",
"**############################################################################**",
"**############################################################################**",
"**############################################################################**",
"**############################################################################**",
"**############################################################################**",
"**############################################################################**",
"**############################################################################**",
"**############################################################################**",
"**############################################################################**",
"**############################################################################**",
"**############################################################################**",
"**############################################################################**",
"**############################################################################**",
"**############################################################################**",
"********************************************************************************",
"********************************************************************************"
};
