/* XPM */
static char *_84f354bf9d5411b98d049c33f2004c3OhywAq7gzXeX8QgG[] = {
/* columns rows colors chars-per-pixel */
"80 80 2 1 ",
"  c #9C5A3C",
". c #FF7E00",
/* pixels */
"................................................................................",
"................................................................................",
"................................................................................",
"................................................................................",
"................................................................................",
"................................................................................",
"......                              ......                                ......",
"......                              ......                                ......",
"......                              ......                                ......",
"......                              ......                                ......",
"......                              ......                                ......",
"......                              ......                                ......",
"......                              ......                                ......",
"......                              ......                                ......",
"......                              ......                                ......",
"......                              ......                                ......",
"......                              ......                                ......",
"......                              ......                                ......",
"......                              ......                                ......",
"......                              ......                                ......",
"......                              ......                                ......",
"......                              ......                                ......",
"......                              ......                                ......",
"......                              ......                                ......",
"......                              ......                                ......",
"......                              ......                                ......",
"......                              ......                                ......",
"......                              ......                                ......",
"......                              ......                                ......",
"......                              ......                                ......",
"......                              ......                                ......",
"......                              ......                                ......",
"......                              ......                                ......",
"......                              ......                                ......",
"......                              ......                                ......",
"......                              ......                                ......",
"......                              ......                                ......",
"................................................................................",
"................................................................................",
"................................................................................",
"................................................................................",
"................................................................................",
"................................................................................",
"......                              ......                                ......",
"......                              ......                                ......",
"......                              ......                                ......",
"......                              ......                                ......",
"......                              ......                                ......",
"......                              ......                                ......",
"......                              ......                                ......",
"......                              ......                                ......",
"......                              ......                                ......",
"......                              ......                                ......",
"......                              ......                                ......",
"......                              ......                                ......",
"......                              ......                                ......",
"......                              ......                                ......",
"......                              ......                                ......",
"......                              ......                                ......",
"......                              ......                                ......",
"......                              ......                                ......",
"......                              ......                                ......",
"......                              ......                                ......",
"......                              ......                                ......",
"......                              ......                                ......",
"......                              ......                                ......",
"......                              ......                                ......",
"......                              ......                                ......",
"......                              ......                                ......",
"......                              ......                                ......",
"......                              ......                                ......",
"......                              ......                                ......",
"......                              ......                                ......",
"......                              ......                                ......",
"................................................................................",
"................................................................................",
"................................................................................",
"................................................................................",
"................................................................................",
"................................................................................"
};
