/* XPM */
static char *_2e0e43d38d147acbb45d470f3b9f2f4qQOc5Eei1wbzT1ub[] = {
/* columns rows colors chars-per-pixel */
"80 80 5 1 ",
"  c #210202",
". c #360804",
"X c #570E06",
"o c #691208",
"O c #7D1E14",
/* pixels */
"                                                                                ",
"                                                                                ",
"  OOOOOOOOOOOOOOOOOOOOOOOOOOOOOOOOOOOOOOO   oooooooooooooooooooooooooooooooooo  ",
"  OOOOOOOOOOOOOOOOOOOOOOOOOOOOOOOOOOOOOOO   oooooooooooooooooooooooooooooooooo  ",
"  OOOOOOOoooooooooooooooooooooooooooooooo   oooooooooooooooooooooooooooooooooo  ",
"  OOOOooooooooooooooooooooooooooooooooooo   oooooooooooooooooooooooooooooooooo  ",
"  OOOoooooooooooooooooooooooooooooooooooo   oooooooooooooooooooooooooooooooooo  ",
"  OOooooooooooooooooooooooooooooooooooooo   ooooooooooooooooooooooooooOOOOOOOO  ",
"  OOooooooooooooooooooooooooooooooooooooo   ooooooooooooooooooooOOOOOOOOOOOOOO  ",
"  OOooooooooooooooooooooooooooooooooooooo   oooooooooooooooooooooooooooooooooo  ",
"  OOooooooooooooooooooooooooooooooooooooo   oooooooooooooooooooooooooooooooooo  ",
"  Ooooooooooooooooooooooooooooooooooooooo   oooooooooooooooooooooooooooooooooo  ",
"  Ooooooooooooooooooooooooooooooooooooooo   oooooooooooooooooooooooooooooooooo  ",
"  Ooooooooooooooooooooooooooooooooooooooo   oooooooooooooooooooooooooooooooooo  ",
"  ooooooooooooooooooooooooooooooooooooooo   oooooooooooooooooooooooooooooooooo  ",
"  ooooooooooooooooooooooooooooooooooooooo   oooooooooooooooooooooooooooooooooo  ",
"  ooooooooooooooooooooooooooooooooooooooo   oooooooooooooooooooooooooooooooooo  ",
"  ooooooooooooooooooooooooooooooooooooooo   oooooooooooooooooooooooooooooooooo  ",
"  ooooooooooooooooooooooooooooooooooooooo   oooooooooooooooooooooooooooooooooo  ",
"  XXXoooooooooooooooooooooooooooooooooooo   XXoooooooooooooooooooooooooooooooo  ",
"  XXXoooooooooooooooooooooooooooooooooooo   XXXXXXXXXXXXXXXXXXXooooooooooooooo  ",
"  ..XXXXXXXoooooooooooooooooooooooooooooo   XXXXXXXXXXXXXXXXXXXooooooooooooooo  ",
"  ...XXXXXXoooooooooooooooooooooooooooooo   XXXXXXXXXXXXXXXXXXXXXXXXXXXXoooooo  ",
"                                                                                ",
"                                                                                ",
"                                                                                ",
"  ooooooooooooooo  ..XXXXXoooooooooooooooooooooooooooooooooooooooooooooooooooo  ",
"  ooooooooooooooo  .XXXXXXoooooooooooooooooooooooooooooooooooooooooooooooooooo  ",
"  ooooooooooooooo  XXXoooooooooooooooooooooooooooooooooooooooooooooooooooooooo  ",
"  ooooooooooooooo  XXXoooooooooooooooooooooooooooooooooooooooooooooooooooooooo  ",
"  ooooooooooooooo  XXXoooooooooooooooooooooooooooooooooooooooooooooooooooooooo  ",
"  ooooooooooooooo  XXooooooooooooooooooooooooooooooooooooooooooooooooooooooooo  ",
"  ooooooooooooooo  XXooooooooooooooooooooooooooooooooooooooooooooooooooooooooo  ",
"  ooooooooooooooo  Xoooooooooooooooooooooooooooooooooooooooooooooooooooooooooo  ",
"  ooooooooooooooo  ooooooooooooooooooooooooooooooooooooooooooooooooooooooooooo  ",
"  ooooooooooooooo  ooooooooooooooooooooooooooooooooooooooooooooooooooooooooooo  ",
"  ooooooooooooooo  ooooooooooooooooooooooooooooooooooooooooooooooooooooooooooo  ",
"  ooooooooooooooo  ooooooooooooooooooooooooooooooooooooooooooooooooooooooooooo  ",
"  ooooooooooooooo  ooooooooooooooooooooooooooooooooooooooooooooooooooooooooooo  ",
"  ooooooooooooooo  ooooooooooooooooooooooooooooooooooooooooooooooooooooooooooo  ",
"  ooooooooooooooo  ooooooooooooooooooooooooooooooooooooooooooooooooooooooooooo  ",
"  ooooooooooooooo  ooooooooooooooooooooooooooooooooooooooooooooooooooooooooooo  ",
"  ooooooooooooooo  ooooooooooooooooooooooooooooooooooooooooooooooooooooooooooo  ",
"  ooooooooooooooo  ooooooooooooooooooooooooooooooooooooooooooooooooooooooooooO  ",
"  ooooooooooooooo  ooooooooooooooooooooooooooooooooooooooooooooooooooooooooooO  ",
"  OOooooooooooooo  ooooooooooooooooooooooooooooooooooooooooooooooooooooooooooO  ",
"  OOooooooooooooo  ooooooooooooooooooooooooooooooooooooooooooooooooooooooooooO  ",
"  OOooooooooooooo  oooooooooooooooooooooooooooooooooooooooooooooooooooooooooOO  ",
"  Ooooooooooooooo  oooooooooooooooooooooooooooooooooooooooooooooooooooooooooOO  ",
"  ooooooooooooooo  oooooooooooooooooooooooooooooooooooooooooooooooooooooOOOOOO  ",
"  ooooooooooooooo  ooooooooooooooooooooooooooooooooooooooooooOOOOOOOOOOOOOOOOO  ",
"  ooooooooooooooo  ooooooooooooooooOOOOOOOOOOOOOOOOOOOOOOOOOOOOOOOOOOOOOOOOOOO  ",
"  ooooooooooooooo  ooooooooooooooOOOOOOOOOOOOOOOOOOOOOOOOOOOOOOOOOOOOOOOOOOOOO  ",
"                                                                                ",
"                                                                                ",
"                                                                                ",
"                                                                                ",
"  XXXXXXXXXXXXXooooooooooooooooooooooooooooooooooooooooooooo  oooooooooooooooo  ",
"  XXXooooooooooooooooooooooooooooooooooooooooooooooooooooooo  oooooooooooooooo  ",
"  Xooooooooooooooooooooooooooooooooooooooooooooooooooooooooo  oooooooooooooooo  ",
"  Xooooooooooooooooooooooooooooooooooooooooooooooooooooooooo  oooooooooooooooo  ",
"  Xooooooooooooooooooooooooooooooooooooooooooooooooooooooooo  oooooooooooooooo  ",
"  Xooooooooooooooooooooooooooooooooooooooooooooooooooooooooo  oooooooooooooooo  ",
"  Xooooooooooooooooooooooooooooooooooooooooooooooooooooooooo  oooooooooooooooo  ",
"  Xooooooooooooooooooooooooooooooooooooooooooooooooooooooooo  oooooooooooooooo  ",
"  oooooooooooooooooooooooooooooooooooooooooooooooooooooooooo  oooooooooooooooo  ",
"  oooooooooooooooooooooooooooooooooooooooooooooooooooooooooo  oooooooooooooooX  ",
"  oooooooooooooooooooooooooooooooooooooooooooooooooooooooooo  oooooooooooooooX  ",
"  oooooooooooooooooooooooooooooooooooooooooooooooooooooooooo  oooooooooooooooX  ",
"  oooooooooooooooooooooooooooooooooooooooooooooooooooooooooo  oooooooooooooooX  ",
"  oooooooooooooooooooooooooooooooooooooooooooooooooooooooooo  ooooooooooooooXX  ",
"  oooooooooooooooooooooooooooooooooooooooooooooooooooooooooo  ooooooooooooooXX  ",
"  oooooooooooooooooooooooooooooooooooooooooooooooooooooooooo  ooooooooooooooXX  ",
"  oooooooooooooooooooooooooooooooooooooooooooooooooooooooooo  ooooooooooooooXX  ",
"  OOOOOooooooooooooooooooooooooooooooooooooooooooooooooooooo  oooooooooooooXXX  ",
"  OOOOOOOOOooooooooooooooooooooooooooooooooooooooooooooooooo  oooooooooooooXXX  ",
"  OOOOOOOOOOOOOOOooooooooooooooooooooooooooooooooooooooOOOOO  ooooooooooooXXXX  ",
"  OOOOOOOOOOOOOOOOOOOOOOOOOOOOooooOOOOOOOOOOOOOOOOOOOOOOOOOO  oooooooooXXXXXX.  ",
"                                                                                ",
"                                                                                "
};
